<svg xmlns="http://www.w3.org/2000/svg" width="27.842" height="18.132" viewBox="0 0 27.842 18.132">
  <g id="noun_conditioner_with_cold_air_1218796" data-name="noun_conditioner with cold air_1218796" transform="translate(0.25 0.25)">
    <path id="Shape" d="M15.19,10.879H1.9A1.889,1.889,0,0,1,0,9V1.876A1.889,1.889,0,0,1,1.9,0H25.443a1.889,1.889,0,0,1,1.9,1.876V9a1.889,1.889,0,0,1-1.9,1.876Z" fill="#8a88b7" stroke="#8a88b7" stroke-miterlimit="10" stroke-width="0.5"/>
    <rect id="Rectangle" width="3.038" height="0.75" rx="0.375" transform="translate(2.911 4.877)" fill="#8a88b7"/>
    <rect id="Rectangle-2" data-name="Rectangle" width="0.76" height="0.75" rx="0.375" transform="translate(6.709 4.877)" fill="#8a88b7"/>
    <path id="Path" d="M1.519,0H.76A.844.844,0,0,1,.471.631a1.565,1.565,0,0,0,0,2.239A.845.845,0,0,1,.76,3.5a.843.843,0,0,1-.289.631A1.556,1.556,0,0,0,0,5.252H.76a.843.843,0,0,1,.289-.631A1.557,1.557,0,0,0,1.519,3.5a1.554,1.554,0,0,0-.471-1.119.835.835,0,0,1,0-1.262A1.553,1.553,0,0,0,1.519,0Z" transform="translate(3.798 12.38)" fill="#8a88b7" stroke="#8a88b7" stroke-miterlimit="10" stroke-width="0.5"/>
    <path id="Path-2" data-name="Path" d="M1.519,0H.76A.844.844,0,0,1,.471.631a1.565,1.565,0,0,0,0,2.239A.845.845,0,0,1,.76,3.5a.843.843,0,0,1-.289.631A1.556,1.556,0,0,0,0,5.252H.76a.843.843,0,0,1,.289-.631A1.557,1.557,0,0,0,1.519,3.5a1.554,1.554,0,0,0-.471-1.119.835.835,0,0,1,0-1.262A1.553,1.553,0,0,0,1.519,0Z" transform="translate(8.355 12.38)" fill="#8a88b7" stroke="#8a88b7" stroke-miterlimit="10" stroke-width="0.5"/>
    <path id="Path-3" data-name="Path" d="M1.519,0H.76A.844.844,0,0,1,.471.631a1.565,1.565,0,0,0,0,2.239A.845.845,0,0,1,.76,3.5a.843.843,0,0,1-.289.631A1.556,1.556,0,0,0,0,5.252H.76a.843.843,0,0,1,.289-.631A1.557,1.557,0,0,0,1.519,3.5a1.554,1.554,0,0,0-.471-1.119.835.835,0,0,1,0-1.262A1.553,1.553,0,0,0,1.519,0Z" transform="translate(12.912 12.38)" fill="#8a88b7" stroke="#8a88b7" stroke-miterlimit="10" stroke-width="0.5"/>
    <path id="Path-4" data-name="Path" d="M1.519,0H.76A.844.844,0,0,1,.471.631a1.565,1.565,0,0,0,0,2.239A.845.845,0,0,1,.76,3.5a.843.843,0,0,1-.289.631A1.556,1.556,0,0,0,0,5.252H.76a.843.843,0,0,1,.289-.631A1.557,1.557,0,0,0,1.519,3.5a1.554,1.554,0,0,0-.471-1.119.835.835,0,0,1,0-1.262A1.553,1.553,0,0,0,1.519,0Z" transform="translate(17.469 12.38)" fill="#8a88b7" stroke="#8a88b7" stroke-miterlimit="10" stroke-width="0.5"/>
    <path id="Path-5" data-name="Path" d="M1.519,0H.76A.844.844,0,0,1,.471.631a1.565,1.565,0,0,0,0,2.239A.845.845,0,0,1,.76,3.5a.843.843,0,0,1-.289.631A1.556,1.556,0,0,0,0,5.252H.76a.843.843,0,0,1,.289-.631A1.557,1.557,0,0,0,1.519,3.5a1.554,1.554,0,0,0-.471-1.119.835.835,0,0,1,0-1.262A1.553,1.553,0,0,0,1.519,0Z" transform="translate(22.026 12.38)" fill="#8a88b7" stroke="#8a88b7" stroke-miterlimit="10" stroke-width="0.5"/>
  </g>
</svg>
