<svg xmlns="http://www.w3.org/2000/svg" viewBox="0 0 395.79 565.6">
  <defs>
    <style>
      .cls-1 {
        fill: none;
      }

      .cls-2 {
        fill: #59595b;
      }

      .cls-3 {
        fill: #808183;
      }

      .cls-4 {
        fill: #fff;
      }
    </style>
  </defs>
  <title>Asset 1@3x_white_logo</title>
  <g id="Layer_2" data-name="Layer 2">
    <g id="Objects">
      <path class="cls-1"
        d="M395.79,197.9C395.79,88.6,307.19,0,197.9,0S-.38,89.3,0,198.59a197.3,197.3,0,0,0,57.77,139,224.5,224.5,0,0,1,58.15,99.83l16,59H261.6l15.11-55.9A225.06,225.06,0,0,1,336.64,339,197.29,197.29,0,0,0,395.79,197.9Z" />
      <path class="cls-2"
        d="M227.86,565.6H164.61c-17.92,0-33.25-13.24-34.27-30L125,470.76l143.25-.91-6.12,65.72C261.11,552.36,245.78,565.6,227.86,565.6Z" />
      <path class="cls-3"
        d="M255.37,498.11c-40,1.71-80.17-.34-120.18,1.43-3.56.15-3.29,5.34.2,5.46,40,1.33,80.19-1.16,120.23.12C260.12,505.26,259.92,497.91,255.37,498.11Z" />
      <path class="cls-3"
        d="M255.37,515.49c-40,1.71-80.17-.34-120.18,1.43-3.56.16-3.29,5.34.2,5.46,40,1.33,80.19-1.15,120.23.12C260.12,522.64,259.92,515.29,255.37,515.49Z" />
      <path class="cls-4"
        d="M283.31,298.66a51,51,0,0,1-14.91-17.6c7.18-8.86,10.34-20.77,11.66-31.85a200.87,200.87,0,0,0,1.14-20.37c.1-6.57-.76-12.14-6.32-16.23-5-3.65-11.58-.36-15.39,3.18-4.39,4.08-6.51,10.76-8.21,16.33-3.42,11.23-3.36,23.28-1.21,34.73a69,69,0,0,0,3.31,11.72,30.3,30.3,0,0,1-9.51,5.06c-10.81,3.46-19-2.77-24-12q-1.23-2.28-2.34-4.79c.85-2.28,1.66-4.56,2.42-6.81a142.19,142.19,0,0,0,6.63-33.93c.76-9.53,1-20.92-8.13-26.56-3-1.82-6.26-.44-8.12,2.13C196.92,220.27,197.67,244.92,205,266a140.66,140.66,0,0,1-8.15,16.29c-3.36,5.79-9.77,14.71-17.55,13.58-7.24-1.05-13-10.14-16.64-15.77A64.53,64.53,0,0,1,156.27,267c.92-2.42,1.78-4.87,2.56-7.35a134.83,134.83,0,0,0,5.63-30.05c.67-8.49.95-20.42-8.34-24.48-2.7-1.18-6.69-1.06-8.12,2.13a85,85,0,0,0-4.57,57.26c.17.65.38,1.3.57,2a125.66,125.66,0,0,1-24.59,38.88c-4.66,5.07,2.72,12.54,7.58,7.58a131.85,131.85,0,0,0,23-31.88,83.86,83.86,0,0,0,6,9.66c6.07,8.39,13.66,16.25,24.57,16.84,10.19.55,18.47-8,24-15.46a81.61,81.61,0,0,0,7-11.52c5,7.95,12.18,14.25,22,15.63,9,1.26,17.76-1.54,25.15-6.49a75.44,75.44,0,0,0,16.45,19.47C282.63,315.42,291.14,304.38,283.31,298.66Zm-68.16-82.54c.42,4.74-.68,10.59-1,13.47a113.22,113.22,0,0,1-2.61,15.59C210.36,235.07,211.18,224.71,215.15,216.12Zm46.23,29.82a56.28,56.28,0,0,1,3.31-14.41,29.78,29.78,0,0,1,2.88-6,11.23,11.23,0,0,1,.94-1.16,9.89,9.89,0,0,1,.22,1.44c.64,12-.36,25-4.09,36.41A37.18,37.18,0,0,1,263,266.4,67.65,67.65,0,0,1,261.38,245.94Z" />
      <path class="cls-4"
        d="M294.56,269.55c-21,64.22-43.19,128.13-67,191.39-2.84,7.57,8.82,12.21,11.66,4.64,23.71-63.35,45.73-127.28,65.49-192C306.75,266.92,296.77,262.82,294.56,269.55Z" />
      <path class="cls-4"
        d="M103.18,265.49C120,331,135.66,396.74,149.61,462.87c1.67,7.92,14,5.56,12.32-2.35-14.07-66.16-29.88-131.91-48-197.08C112,256.72,101.42,258.63,103.18,265.49Z" />
    </g>
  </g>
</svg>