<svg xmlns="http://www.w3.org/2000/svg" width="13.517" height="18.71" viewBox="0 0 13.517 18.71">
  <g id="noun_drop_686146" transform="translate(0.923 0.593)">
    <path id="Path" d="M5.694.32a.249.249,0,0,1,.417,0l4.4,6.733a7.206,7.206,0,0,1,1.276,4.13A6.074,6.074,0,0,1,6.1,17.317a5.694,5.694,0,0,1-4.556-2.025A6.535,6.535,0,0,1,.769,7.983c.474-.907,1.072-1.74,1.624-2.6Z" fill="none" stroke="#39b6ff" stroke-miterlimit="10" stroke-width="1.6"/>
    <path id="Path-2" data-name="Path" d="M1.912.67A4,4,0,0,0,.884,3.178a2.459,2.459,0,0,0,.437,1.4.414.414,0,0,1-.126.588.454.454,0,0,1-.243.07.446.446,0,0,1-.369-.191A3.281,3.281,0,0,1,0,3.178a4.747,4.747,0,0,1,1.191-3,.454.454,0,0,1,.616-.1A.413.413,0,0,1,1.912.67Z" transform="translate(1.312 8.841) rotate(-11)" fill="#39b6ff"/>
  </g>
</svg>
